<svg xmlns="http://www.w3.org/2000/svg" viewBox="61 15 66 66">
  <g fill="#29abe2">
    <path fill-rule="nonzero" d="M 120.710938 66.921875 C 120.710938 71.03125 117.367188 74.371094 113.261719 74.371094 L 74.789062 74.371094 C 70.679688 74.371094 67.339844 71.03125 67.339844 66.921875 L 67.339844 29.074219 C 67.339844 24.964844 70.679688 21.625 74.789062 21.625 L 113.261719 21.625 C 117.367188 21.625 120.710938 24.964844 120.710938 29.074219 Z M 113.261719 18.566406 L 74.789062 18.566406 C 68.996094 18.566406 64.28125 23.28125 64.28125 29.074219 L 64.28125 66.921875 C 64.28125 72.714844 68.996094 77.429688 74.789062 77.429688 L 113.261719 77.429688 C 119.054688 77.429688 123.765625 72.714844 123.765625 66.921875 L 123.765625 29.074219 C 123.765625 23.28125 119.054688 18.566406 113.261719 18.566406"/>
<path fill-rule="nonzero" d="M 106.105469 32.074219 C 104.914062 30.28125 103.1875 29.25 101.375 29.25 C 99.558594 29.25 97.828125 30.285156 96.628906 32.089844 L 94.027344 35.988281 L 91.417969 32.074219 C 90.222656 30.28125 88.5 29.25 86.6875 29.25 C 84.871094 29.25 83.140625 30.285156 81.9375 32.089844 L 73.144531 45.289062 C 73.101562 45.347656 73.074219 45.414062 73.042969 45.476562 L 76.621094 45.476562 L 84.433594 33.75 C 85.078125 32.78125 85.878906 32.246094 86.6875 32.246094 C 87.492188 32.246094 88.289062 32.777344 88.925781 33.734375 L 92.226562 38.691406 L 87.832031 45.289062 C 87.792969 45.347656 87.761719 45.414062 87.730469 45.476562 L 91.304688 45.476562 L 94.027344 41.394531 L 96.75 45.476562 L 100.320312 45.476562 C 100.28125 45.394531 100.242188 45.3125 100.1875 45.234375 L 95.828125 38.691406 L 99.121094 33.75 C 99.765625 32.78125 100.566406 32.246094 101.375 32.246094 C 102.179688 32.246094 102.972656 32.777344 103.613281 33.734375 L 111.4375 45.476562 L 115.003906 45.476562 C 114.96875 45.394531 114.929688 45.3125 114.875 45.234375 Z M 106.105469 32.074219"/>
<path fill-rule="nonzero" d="M 103.617188 62.246094 C 102.972656 63.214844 102.167969 63.75 101.359375 63.75 C 100.558594 63.75 99.761719 63.21875 99.121094 62.261719 L 95.820312 57.304688 L 100.21875 50.707031 C 100.257812 50.644531 100.289062 50.582031 100.316406 50.519531 L 96.742188 50.519531 L 94.019531 54.601562 L 91.300781 50.519531 L 87.730469 50.519531 C 87.769531 50.601562 87.808594 50.683594 87.859375 50.761719 L 92.222656 57.304688 L 88.929688 62.246094 C 88.28125 63.214844 87.484375 63.75 86.671875 63.75 C 85.867188 63.75 85.074219 63.21875 84.4375 62.261719 L 76.613281 50.519531 L 73.042969 50.519531 C 73.078125 50.601562 73.121094 50.683594 73.171875 50.761719 L 81.941406 63.921875 C 83.136719 65.714844 84.863281 66.746094 86.671875 66.746094 C 88.488281 66.746094 90.222656 65.710938 91.421875 63.90625 L 94.019531 60.007812 L 96.628906 63.921875 C 97.824219 65.714844 99.546875 66.746094 101.359375 66.746094 C 103.179688 66.746094 104.90625 65.710938 106.109375 63.90625 L 114.90625 50.707031 C 114.945312 50.644531 114.976562 50.582031 115.003906 50.519531 L 111.429688 50.519531 Z M 103.617188 62.246094"/>
  </g>
</svg>